# xmcd
#
# Track frame offsets:
#   150
#   26612
#   45408
#   64233
#   78973
#   93522
#   112275
#   126255
#   152033
#   167930
#   184231
#   197668
#   212996
#   232271
#   245690
#
# Disc length: 3502 seconds
#
# Revision: 0
# Processed by: cddbd v1.5.1PL0 Copyright (c) Steve Scherf et al.
# Submitted via: uFREEDB 1.6.0
#
DISCID=dd0dac0f
DTITLE=Amazan - Sanfoneiro Nordestino
DYEAR=1900
DGENRE=Country
TTITLE0=Aperta o nó
TTITLE1=Vicença
TTITLE2=Raimundo de Chico Inácio
TTITLE3=Viciado em Mulher
TTITLE4=O aluno gago
TTITLE5=Eu quero o boi amarrado
TTITLE6=Brasil Caboclo
TTITLE7=O cantador de vocês
TTITLE8=Benedita Aparecida
TTITLE9=Onde se dança São João
TTITLE10=Carimbó do macaco
TTITLE11=Carimbó e Serindó
TTITLE12=Espumas ao vento
TTITLE13=Loiras x Morenas
TTITLE14=amor da vaquejada
EXTD=
EXTT0=
EXTT1=
EXTT2=
EXTT3=
EXTT4=
EXTT5=
EXTT6=
EXTT7=
EXTT8=
EXTT9=
EXTT10=
EXTT11=
EXTT12=
EXTT13=
EXTT14=
PLAYORDER=
